<mxfile host="app.diagrams.net" agent="Mozilla/5.0 (Windows NT 10.0; Win64; x64; rv:132.0) Gecko/20100101 Firefox/132.0" version="24.8.3">
  <diagram name="Страница — 1" id="UhZSzQbIkQQjVMvfsuCA">
    <mxGraphModel dx="812" dy="471" grid="1" gridSize="10" guides="1" tooltips="1" connect="1" arrows="1" fold="1" page="1" pageScale="1" pageWidth="827" pageHeight="1169" math="0" shadow="0">
      <root>
        <mxCell id="0" />
        <mxCell id="1" parent="0" />
        <mxCell id="nlwJmO0JcRZUQKLnh5BH-2" value="&amp;nbsp;" style="whiteSpace=wrap;html=1;align=center;fillColor=#004500;fontColor=#ffffff;strokeColor=#005700;" vertex="1" parent="1">
          <mxGeometry x="573" y="600" width="67" height="20" as="geometry" />
        </mxCell>
        <mxCell id="nlwJmO0JcRZUQKLnh5BH-1" value="&amp;nbsp;" style="whiteSpace=wrap;html=1;align=center;fillColor=#004500;fontColor=#ffffff;strokeColor=#005700;" vertex="1" parent="1">
          <mxGeometry x="574" y="569" width="66" height="20" as="geometry" />
        </mxCell>
        <mxCell id="JSCeEZEVTL30JGE4o3OL-43" value="&lt;div&gt;&lt;br&gt;&lt;/div&gt;&lt;div&gt;&lt;br&gt;&lt;/div&gt;" style="whiteSpace=wrap;html=1;align=center;fillColor=#004500;fontColor=#ffffff;strokeColor=#005700;" parent="1" vertex="1">
          <mxGeometry x="46" y="330" width="55" height="19" as="geometry" />
        </mxCell>
        <mxCell id="JSCeEZEVTL30JGE4o3OL-42" value="&lt;div&gt;&lt;br&gt;&lt;/div&gt;&lt;div&gt;&lt;br&gt;&lt;/div&gt;" style="whiteSpace=wrap;html=1;align=center;fillColor=#004500;fontColor=#ffffff;strokeColor=#005700;" parent="1" vertex="1">
          <mxGeometry x="45" y="302" width="95" height="19" as="geometry" />
        </mxCell>
        <mxCell id="JSCeEZEVTL30JGE4o3OL-41" value="&lt;div&gt;&lt;br&gt;&lt;/div&gt;&lt;div&gt;&lt;br&gt;&lt;/div&gt;" style="whiteSpace=wrap;html=1;align=center;fillColor=#004500;fontColor=#ffffff;strokeColor=#005700;" parent="1" vertex="1">
          <mxGeometry x="326" y="298" width="54" height="19" as="geometry" />
        </mxCell>
        <mxCell id="JSCeEZEVTL30JGE4o3OL-40" value="&lt;div&gt;&lt;br&gt;&lt;/div&gt;&lt;div&gt;&lt;br&gt;&lt;/div&gt;" style="whiteSpace=wrap;html=1;align=center;fillColor=#004500;fontColor=#ffffff;strokeColor=#005700;" parent="1" vertex="1">
          <mxGeometry x="324" y="272" width="96" height="19" as="geometry" />
        </mxCell>
        <mxCell id="JSCeEZEVTL30JGE4o3OL-38" value="&amp;nbsp;" style="whiteSpace=wrap;html=1;align=center;fillColor=#004500;fontColor=#ffffff;strokeColor=#005700;" parent="1" vertex="1">
          <mxGeometry x="620" y="507" width="60" height="20" as="geometry" />
        </mxCell>
        <mxCell id="JSCeEZEVTL30JGE4o3OL-37" value="&amp;nbsp;" style="whiteSpace=wrap;html=1;align=center;fillColor=#004500;strokeColor=#005700;fontColor=#ffffff;" parent="1" vertex="1">
          <mxGeometry x="641" y="418" width="60" height="20" as="geometry" />
        </mxCell>
        <mxCell id="JSCeEZEVTL30JGE4o3OL-1" value="Student" style="swimlane;fontStyle=0;childLayout=stackLayout;horizontal=1;startSize=26;horizontalStack=0;resizeParent=1;resizeParentMax=0;resizeLast=0;collapsible=1;marginBottom=0;align=left;fontSize=14;swimlaneLine=0;" parent="1" vertex="1">
          <mxGeometry x="40" y="90" width="160" height="266" as="geometry" />
        </mxCell>
        <mxCell id="JSCeEZEVTL30JGE4o3OL-2" value="&lt;div&gt;&lt;u&gt;ID&lt;/u&gt; report_card&lt;/div&gt;" style="text;strokeColor=none;fillColor=none;spacingLeft=4;spacingRight=4;overflow=hidden;rotatable=0;points=[[0,0.5],[1,0.5]];portConstraint=eastwest;fontSize=12;whiteSpace=wrap;html=1;" parent="JSCeEZEVTL30JGE4o3OL-1" vertex="1">
          <mxGeometry y="26" width="160" height="30" as="geometry" />
        </mxCell>
        <mxCell id="JSCeEZEVTL30JGE4o3OL-3" value="first_name&lt;sub&gt;1.1&lt;/sub&gt;" style="text;strokeColor=none;fillColor=none;spacingLeft=4;spacingRight=4;overflow=hidden;rotatable=0;points=[[0,0.5],[1,0.5]];portConstraint=eastwest;fontSize=12;whiteSpace=wrap;html=1;" parent="JSCeEZEVTL30JGE4o3OL-1" vertex="1">
          <mxGeometry y="56" width="160" height="30" as="geometry" />
        </mxCell>
        <mxCell id="JSCeEZEVTL30JGE4o3OL-4" value="last_name&lt;sub&gt;1.1&lt;/sub&gt;" style="text;strokeColor=none;fillColor=none;spacingLeft=4;spacingRight=4;overflow=hidden;rotatable=0;points=[[0,0.5],[1,0.5]];portConstraint=eastwest;fontSize=12;whiteSpace=wrap;html=1;" parent="JSCeEZEVTL30JGE4o3OL-1" vertex="1">
          <mxGeometry y="86" width="160" height="30" as="geometry" />
        </mxCell>
        <mxCell id="JSCeEZEVTL30JGE4o3OL-7" value="date_of_birth&lt;sub&gt;1.1&lt;/sub&gt;" style="text;strokeColor=none;fillColor=none;spacingLeft=4;spacingRight=4;overflow=hidden;rotatable=0;points=[[0,0.5],[1,0.5]];portConstraint=eastwest;fontSize=12;whiteSpace=wrap;html=1;" parent="JSCeEZEVTL30JGE4o3OL-1" vertex="1">
          <mxGeometry y="116" width="160" height="30" as="geometry" />
        </mxCell>
        <mxCell id="JSCeEZEVTL30JGE4o3OL-6" value="encament_date&lt;sub&gt;1.1&lt;/sub&gt;" style="text;strokeColor=none;fillColor=none;spacingLeft=4;spacingRight=4;overflow=hidden;rotatable=0;points=[[0,0.5],[1,0.5]];portConstraint=eastwest;fontSize=12;whiteSpace=wrap;html=1;" parent="JSCeEZEVTL30JGE4o3OL-1" vertex="1">
          <mxGeometry y="146" width="160" height="30" as="geometry" />
        </mxCell>
        <mxCell id="JSCeEZEVTL30JGE4o3OL-5" value="emeil&lt;sub&gt;1.1&lt;/sub&gt;" style="text;strokeColor=none;fillColor=none;spacingLeft=4;spacingRight=4;overflow=hidden;rotatable=0;points=[[0,0.5],[1,0.5]];portConstraint=eastwest;fontSize=12;whiteSpace=wrap;html=1;" parent="JSCeEZEVTL30JGE4o3OL-1" vertex="1">
          <mxGeometry y="176" width="160" height="30" as="geometry" />
        </mxCell>
        <mxCell id="JSCeEZEVTL30JGE4o3OL-10" value="Course(Exem)&lt;sub&gt;0.N&lt;/sub&gt;" style="text;strokeColor=none;fillColor=none;spacingLeft=4;spacingRight=4;overflow=hidden;rotatable=0;points=[[0,0.5],[1,0.5]];portConstraint=eastwest;fontSize=12;whiteSpace=wrap;html=1;fontColor=#B9E0A5;" parent="JSCeEZEVTL30JGE4o3OL-1" vertex="1">
          <mxGeometry y="206" width="160" height="30" as="geometry" />
        </mxCell>
        <mxCell id="JSCeEZEVTL30JGE4o3OL-9" value="Course&lt;sub&gt;0.N&lt;/sub&gt;" style="text;strokeColor=none;fillColor=none;spacingLeft=4;spacingRight=4;overflow=hidden;rotatable=0;points=[[0,0.5],[1,0.5]];portConstraint=eastwest;fontSize=12;whiteSpace=wrap;html=1;fontColor=#B9E0A5;" parent="JSCeEZEVTL30JGE4o3OL-1" vertex="1">
          <mxGeometry y="236" width="160" height="30" as="geometry" />
        </mxCell>
        <mxCell id="JSCeEZEVTL30JGE4o3OL-12" value="Teacher" style="swimlane;fontStyle=0;childLayout=stackLayout;horizontal=1;startSize=26;horizontalStack=0;resizeParent=1;resizeParentMax=0;resizeLast=0;collapsible=1;marginBottom=0;align=left;fontSize=14;swimlaneLine=0;" parent="1" vertex="1">
          <mxGeometry x="320" y="89" width="160" height="236" as="geometry" />
        </mxCell>
        <mxCell id="JSCeEZEVTL30JGE4o3OL-13" value="&lt;u&gt;ID&lt;/u&gt; SPIN_code" style="text;strokeColor=none;fillColor=none;spacingLeft=4;spacingRight=4;overflow=hidden;rotatable=0;points=[[0,0.5],[1,0.5]];portConstraint=eastwest;fontSize=12;whiteSpace=wrap;html=1;" parent="JSCeEZEVTL30JGE4o3OL-12" vertex="1">
          <mxGeometry y="26" width="160" height="30" as="geometry" />
        </mxCell>
        <mxCell id="JSCeEZEVTL30JGE4o3OL-20" value="first_name&lt;sub&gt;1.1&lt;/sub&gt;" style="text;strokeColor=none;fillColor=none;spacingLeft=4;spacingRight=4;overflow=hidden;rotatable=0;points=[[0,0.5],[1,0.5]];portConstraint=eastwest;fontSize=12;whiteSpace=wrap;html=1;" parent="JSCeEZEVTL30JGE4o3OL-12" vertex="1">
          <mxGeometry y="56" width="160" height="30" as="geometry" />
        </mxCell>
        <mxCell id="JSCeEZEVTL30JGE4o3OL-19" value="last_name&lt;sub&gt;1.1&lt;/sub&gt;" style="text;strokeColor=none;fillColor=none;spacingLeft=4;spacingRight=4;overflow=hidden;rotatable=0;points=[[0,0.5],[1,0.5]];portConstraint=eastwest;fontSize=12;whiteSpace=wrap;html=1;" parent="JSCeEZEVTL30JGE4o3OL-12" vertex="1">
          <mxGeometry y="86" width="160" height="30" as="geometry" />
        </mxCell>
        <mxCell id="JSCeEZEVTL30JGE4o3OL-18" value="department&lt;sub&gt;0.1&lt;/sub&gt;" style="text;strokeColor=none;fillColor=none;spacingLeft=4;spacingRight=4;overflow=hidden;rotatable=0;points=[[0,0.5],[1,0.5]];portConstraint=eastwest;fontSize=12;whiteSpace=wrap;html=1;" parent="JSCeEZEVTL30JGE4o3OL-12" vertex="1">
          <mxGeometry y="116" width="160" height="30" as="geometry" />
        </mxCell>
        <mxCell id="JSCeEZEVTL30JGE4o3OL-17" value="email&lt;sub&gt;1.1&lt;/sub&gt;" style="text;strokeColor=none;fillColor=none;spacingLeft=4;spacingRight=4;overflow=hidden;rotatable=0;points=[[0,0.5],[1,0.5]];portConstraint=eastwest;fontSize=12;whiteSpace=wrap;html=1;" parent="JSCeEZEVTL30JGE4o3OL-12" vertex="1">
          <mxGeometry y="146" width="160" height="30" as="geometry" />
        </mxCell>
        <mxCell id="JSCeEZEVTL30JGE4o3OL-16" value="&lt;div&gt;Course(Exam)&lt;sub&gt;0.N&lt;/sub&gt;&lt;/div&gt;" style="text;strokeColor=none;fillColor=none;spacingLeft=4;spacingRight=4;overflow=hidden;rotatable=0;points=[[0,0.5],[1,0.5]];portConstraint=eastwest;fontSize=12;whiteSpace=wrap;html=1;fontColor=#B9E0A5;" parent="JSCeEZEVTL30JGE4o3OL-12" vertex="1">
          <mxGeometry y="176" width="160" height="30" as="geometry" />
        </mxCell>
        <mxCell id="JSCeEZEVTL30JGE4o3OL-14" value="Course&lt;sub&gt;0.N&lt;/sub&gt;" style="text;strokeColor=none;fillColor=none;spacingLeft=4;spacingRight=4;overflow=hidden;rotatable=0;points=[[0,0.5],[1,0.5]];portConstraint=eastwest;fontSize=12;whiteSpace=wrap;html=1;fontColor=#B9E0A5;" parent="JSCeEZEVTL30JGE4o3OL-12" vertex="1">
          <mxGeometry y="206" width="160" height="30" as="geometry" />
        </mxCell>
        <mxCell id="JSCeEZEVTL30JGE4o3OL-21" value="Course" style="swimlane;fontStyle=0;childLayout=stackLayout;horizontal=1;startSize=26;horizontalStack=0;resizeParent=1;resizeParentMax=0;resizeLast=0;collapsible=1;marginBottom=0;align=left;fontSize=14;swimlaneLine=0;" parent="1" vertex="1">
          <mxGeometry x="570" y="90" width="160" height="536" as="geometry" />
        </mxCell>
        <mxCell id="JSCeEZEVTL30JGE4o3OL-22" value="&lt;font&gt;IDCourse&lt;/font&gt;" style="text;spacingLeft=4;spacingRight=4;overflow=hidden;rotatable=0;points=[[0,0.5],[1,0.5]];portConstraint=eastwest;fontSize=12;whiteSpace=wrap;html=1;fontColor=#003366;" parent="JSCeEZEVTL30JGE4o3OL-21" vertex="1">
          <mxGeometry y="26" width="160" height="30" as="geometry" />
        </mxCell>
        <mxCell id="JSCeEZEVTL30JGE4o3OL-23" value="&lt;div align=&quot;center&quot;&gt;title_of_course&lt;sub&gt;1.1&lt;/sub&gt;&lt;/div&gt;" style="text;strokeColor=none;fillColor=none;spacingLeft=4;spacingRight=4;overflow=hidden;rotatable=0;points=[[0,0.5],[1,0.5]];portConstraint=eastwest;fontSize=12;whiteSpace=wrap;html=1;align=center;verticalAlign=middle;" parent="JSCeEZEVTL30JGE4o3OL-21" vertex="1">
          <mxGeometry y="56" width="160" height="30" as="geometry" />
        </mxCell>
        <mxCell id="JSCeEZEVTL30JGE4o3OL-24" value="&lt;div align=&quot;center&quot;&gt;date_of_course&lt;sub&gt;1.1&lt;/sub&gt;&lt;/div&gt;" style="text;strokeColor=none;fillColor=none;spacingLeft=4;spacingRight=4;overflow=hidden;rotatable=0;points=[[0,0.5],[1,0.5]];portConstraint=eastwest;fontSize=12;whiteSpace=wrap;html=1;align=center;verticalAlign=middle;" parent="JSCeEZEVTL30JGE4o3OL-21" vertex="1">
          <mxGeometry y="86" width="160" height="30" as="geometry" />
        </mxCell>
        <mxCell id="JSCeEZEVTL30JGE4o3OL-28" value="&lt;div align=&quot;right&quot;&gt;&lt;sup&gt;1.1&lt;/sup&gt;&lt;/div&gt;" style="text;strokeColor=none;fillColor=none;spacingLeft=4;spacingRight=4;overflow=hidden;rotatable=0;points=[[0,0.5],[1,0.5]];portConstraint=eastwest;fontSize=12;whiteSpace=wrap;html=1;align=right;" parent="JSCeEZEVTL30JGE4o3OL-21" vertex="1">
          <mxGeometry y="116" width="160" height="30" as="geometry" />
        </mxCell>
        <mxCell id="JSCeEZEVTL30JGE4o3OL-27" value="&lt;div align=&quot;left&quot;&gt;description&lt;sub&gt;0.1&lt;/sub&gt;&lt;/div&gt;" style="text;strokeColor=none;fillColor=none;spacingLeft=4;spacingRight=4;overflow=hidden;rotatable=0;points=[[0,0.5],[1,0.5]];portConstraint=eastwest;fontSize=12;whiteSpace=wrap;html=1;align=left;verticalAlign=middle;" parent="JSCeEZEVTL30JGE4o3OL-21" vertex="1">
          <mxGeometry y="146" width="160" height="30" as="geometry" />
        </mxCell>
        <mxCell id="JSCeEZEVTL30JGE4o3OL-26" value="&lt;div align=&quot;left&quot;&gt;department&lt;sub&gt;1.1&lt;/sub&gt;&lt;/div&gt;" style="text;strokeColor=none;fillColor=none;spacingLeft=4;spacingRight=4;overflow=hidden;rotatable=0;points=[[0,0.5],[1,0.5]];portConstraint=eastwest;fontSize=12;whiteSpace=wrap;html=1;align=left;verticalAlign=middle;" parent="JSCeEZEVTL30JGE4o3OL-21" vertex="1">
          <mxGeometry y="176" width="160" height="30" as="geometry" />
        </mxCell>
        <mxCell id="JSCeEZEVTL30JGE4o3OL-30" value="schedule&lt;sub&gt;0.1&lt;/sub&gt;" style="text;strokeColor=none;fillColor=none;spacingLeft=4;spacingRight=4;overflow=hidden;rotatable=0;points=[[0,0.5],[1,0.5]];portConstraint=eastwest;fontSize=12;whiteSpace=wrap;html=1;align=left;verticalAlign=middle;" parent="JSCeEZEVTL30JGE4o3OL-21" vertex="1">
          <mxGeometry y="206" width="160" height="30" as="geometry" />
        </mxCell>
        <mxCell id="JSCeEZEVTL30JGE4o3OL-29" value="Exam" style="text;strokeColor=none;fillColor=none;spacingLeft=4;spacingRight=4;overflow=hidden;rotatable=0;points=[[0,0.5],[1,0.5]];portConstraint=eastwest;fontSize=12;whiteSpace=wrap;html=1;align=left;fontColor=#003366;" parent="JSCeEZEVTL30JGE4o3OL-21" vertex="1">
          <mxGeometry y="236" width="160" height="30" as="geometry" />
        </mxCell>
        <mxCell id="JSCeEZEVTL30JGE4o3OL-44" value="&lt;div align=&quot;center&quot;&gt;IDExam&lt;/div&gt;" style="text;strokeColor=none;fillColor=none;spacingLeft=4;spacingRight=28;overflow=hidden;rotatable=0;points=[[0,0.5],[1,0.5]];portConstraint=eastwest;fontSize=12;whiteSpace=wrap;html=1;align=center;fontColor=#003366;" parent="JSCeEZEVTL30JGE4o3OL-21" vertex="1">
          <mxGeometry y="266" width="160" height="30" as="geometry" />
        </mxCell>
        <mxCell id="JSCeEZEVTL30JGE4o3OL-35" value="time_stamp&lt;sub&gt;1.1&lt;/sub&gt;" style="text;strokeColor=none;fillColor=none;spacingLeft=36;spacingRight=4;overflow=hidden;rotatable=0;points=[[0,0.5],[1,0.5]];portConstraint=eastwest;fontSize=12;whiteSpace=wrap;html=1;align=center;verticalAlign=middle;" parent="JSCeEZEVTL30JGE4o3OL-21" vertex="1">
          <mxGeometry y="296" width="160" height="30" as="geometry" />
        </mxCell>
        <mxCell id="JSCeEZEVTL30JGE4o3OL-34" value="Student&lt;sub&gt;1.1&lt;/sub&gt;" style="text;strokeColor=none;fillColor=none;spacingLeft=50;spacingRight=4;overflow=hidden;rotatable=0;points=[[0,0.5],[1,0.5]];portConstraint=eastwest;fontSize=12;whiteSpace=wrap;html=1;align=center;rounded=0;verticalAlign=middle;fontColor=#B9E0A5;" parent="JSCeEZEVTL30JGE4o3OL-21" vertex="1">
          <mxGeometry y="326" width="160" height="30" as="geometry" />
        </mxCell>
        <mxCell id="ymJuWClxJ1Mpt1Zenrs8-1" value="&lt;div&gt;&lt;sup&gt;1.1&lt;/sup&gt;&lt;/div&gt;" style="text;strokeColor=none;fillColor=none;spacingLeft=4;spacingRight=25;overflow=hidden;rotatable=0;points=[[0,0.5],[1,0.5]];portConstraint=eastwest;fontSize=12;whiteSpace=wrap;html=1;align=right;verticalAlign=middle;" parent="JSCeEZEVTL30JGE4o3OL-21" vertex="1">
          <mxGeometry y="356" width="160" height="30" as="geometry" />
        </mxCell>
        <mxCell id="JSCeEZEVTL30JGE4o3OL-33" value="grate&lt;sub&gt;1.1&lt;/sub&gt;" style="text;strokeColor=none;fillColor=none;spacingLeft=4;spacingRight=4;overflow=hidden;rotatable=0;points=[[0,0.5],[1,0.5]];portConstraint=eastwest;fontSize=12;whiteSpace=wrap;html=1;align=center;verticalAlign=middle;" parent="JSCeEZEVTL30JGE4o3OL-21" vertex="1">
          <mxGeometry y="386" width="160" height="30" as="geometry" />
        </mxCell>
        <mxCell id="JSCeEZEVTL30JGE4o3OL-32" value="Teacher&lt;sub&gt;1.1&lt;/sub&gt;" style="text;strokeColor=none;fillColor=none;spacingLeft=4;spacingRight=4;overflow=hidden;rotatable=0;points=[[0,0.5],[1,0.5]];portConstraint=eastwest;fontSize=12;whiteSpace=wrap;html=1;align=center;fontColor=#B9E0A5;" parent="JSCeEZEVTL30JGE4o3OL-21" vertex="1">
          <mxGeometry y="416" width="160" height="30" as="geometry" />
        </mxCell>
        <mxCell id="JSCeEZEVTL30JGE4o3OL-31" value="&lt;div align=&quot;right&quot;&gt;&lt;sup&gt;1.N&lt;/sup&gt;&lt;/div&gt;" style="text;strokeColor=none;fillColor=none;spacingLeft=4;spacingRight=4;overflow=hidden;rotatable=0;points=[[0,0.5],[1,0.5]];portConstraint=eastwest;fontSize=12;whiteSpace=wrap;html=1;align=right;" parent="JSCeEZEVTL30JGE4o3OL-21" vertex="1">
          <mxGeometry y="446" width="160" height="30" as="geometry" />
        </mxCell>
        <mxCell id="ymJuWClxJ1Mpt1Zenrs8-2" value="&lt;div align=&quot;left&quot;&gt;Teacher&lt;sub&gt;0.N&lt;/sub&gt;&lt;/div&gt;" style="text;strokeColor=none;fillColor=none;spacingLeft=4;spacingRight=4;overflow=hidden;rotatable=0;points=[[0,0.5],[1,0.5]];portConstraint=eastwest;fontSize=12;whiteSpace=wrap;html=1;align=left;fontColor=#B9E0A5;" parent="JSCeEZEVTL30JGE4o3OL-21" vertex="1">
          <mxGeometry y="476" width="160" height="30" as="geometry" />
        </mxCell>
        <mxCell id="ymJuWClxJ1Mpt1Zenrs8-3" value="&lt;div align=&quot;left&quot;&gt;Student&lt;sub&gt;0.N&lt;/sub&gt;&lt;/div&gt;" style="text;strokeColor=none;fillColor=none;spacingLeft=4;spacingRight=4;overflow=hidden;rotatable=0;points=[[0,0.5],[1,0.5]];portConstraint=eastwest;fontSize=12;whiteSpace=wrap;html=1;align=left;fontColor=#B9E0A5;" parent="JSCeEZEVTL30JGE4o3OL-21" vertex="1">
          <mxGeometry y="506" width="160" height="30" as="geometry" />
        </mxCell>
        <mxCell id="JSCeEZEVTL30JGE4o3OL-25" value="" style="strokeWidth=2;html=1;shape=mxgraph.flowchart.annotation_1;align=left;pointerEvents=1;flipH=1;fillColor=#dae8fc;strokeColor=#6c8ebf;" parent="1" vertex="1">
          <mxGeometry x="700" y="122" width="18" height="78" as="geometry" />
        </mxCell>
        <mxCell id="JSCeEZEVTL30JGE4o3OL-36" value="" style="strokeWidth=2;html=1;shape=mxgraph.flowchart.annotation_1;align=left;pointerEvents=1;flipH=1;fillColor=#dae8fc;strokeColor=#6c8ebf;" parent="1" vertex="1">
          <mxGeometry x="700" y="331" width="18" height="209" as="geometry" />
        </mxCell>
        <mxCell id="JSCeEZEVTL30JGE4o3OL-45" value="" style="strokeWidth=2;html=1;shape=mxgraph.flowchart.annotation_1;align=left;pointerEvents=1;flipH=1;fillColor=#dae8fc;strokeColor=#6c8ebf;" parent="1" vertex="1">
          <mxGeometry x="688" y="360" width="18" height="80" as="geometry" />
        </mxCell>
      </root>
    </mxGraphModel>
  </diagram>
</mxfile>
